# xmcd
#
# Track frame offsets: 
#        150
#        50388
#        71459
#        104627
#        135756
#        165770
#        205855
#        231540
#        268560
#        299549
#
# Disc length: 4255 seconds
#
# Revision: 2
# Processed by: cddbd v1.5.2PL0 Copyright (c) Steve Scherf et al.
# Submitted via: ExactAudioCopy v0.99pb5
#
DISCID=8c109d0a
DTITLE=Soundscapes Relaxing Music - 04 Tranquillity
DYEAR=1900
DGENRE=New Age
TTITLE0=Explora - Tranquillity
TTITLE1=Virtualmind - Nobody's Land
TTITLE2=Direct 2 Brain - Reality
TTITLE3=Sunrise - While I was sleeping
TTITLE4=Lens Flare - Time to Think
TTITLE5=Virtualmind - Snow Crystal
TTITLE6=Infinity - Legends
TTITLE7=Sunrise - Emotional Resonance
TTITLE8=Obnosis - Elements
TTITLE9=P.Trask - Phase
EXTD=
EXTT0=
EXTT1=
EXTT2=
EXTT3=
EXTT4=
EXTT5=
EXTT6=
EXTT7=
EXTT8=
EXTT9=
PLAYORDER=
